<svg xmlns="http://www.w3.org/2000/svg" viewBox="0 0 3960 1080"><defs><radialGradient id="a" cx="960" cy="540" r="1113.04" gradientTransform="scale(2.06 1)" gradientUnits="userSpaceOnUse"><stop offset=".18" stop-color="#ccfffc"/><stop offset=".36" stop-color="#c8fdfb"/><stop offset=".54" stop-color="#bcf8fa"/><stop offset=".72" stop-color="#a8eff7"/><stop offset=".9" stop-color="#8be3f3"/><stop offset="1" stop-color="#78daf0"/></radialGradient><clipPath id="b"><path fill="none" d="M0 0h3960v1080H0z"/></clipPath><clipPath id="c"><path fill="none" d="M960 742h1920v338H960z"/></clipPath></defs><path opacity=".5" fill="url(#a)" d="M0 0h3960v1080H0z" data-name="BG"/><g data-name="Clouds" fill="#fff"><circle cx="548.5" cy="564.5" r="81.5"/><circle cx="460.5" cy="544.5" r="65.5"/><circle cx="646.5" cy="554.5" r="59.5"/><circle cx="554.5" cy="466.5" r="82.5"/><circle cx="646.5" cy="471.5" r="66.5"/><circle cx="724" cy="512" r="55"/><circle cx="771" cy="549" r="41"/><circle cx="965.5" cy="128.5" r="87.5"/><circle cx="888" cy="190" r="70"/><circle cx="864.5" cy="285.5" r="82.5"/><circle cx="782.5" cy="226.5" r="64.5"/><circle cx="720.5" cy="162.5" r="56.5"/><circle cx="1083.5" cy="149.5" r="56.5"/><circle cx="1003.5" cy="238.5" r="71.5"/><circle cx="2667" cy="429" r="76"/><circle cx="2581" cy="458" r="51"/><circle cx="2771" cy="458" r="117"/><circle cx="2888" cy="575" r="88"/><circle cx="2879.5" cy="499.5" r="65.5"/><circle cx="2918" cy="424" r="80"/><circle cx="2987.5" cy="507.5" r="70.5"/><circle cx="3078" cy="551" r="71"/><circle cx="3149" cy="513" r="45"/><circle cx="3586.5" cy="573.5" r="71.5"/><circle cx="3839.5" cy="618.5" r="59.5"/><circle cx="3557" cy="482" r="42"/><circle cx="3515" cy="524" r="34"/><circle cx="3659" cy="502" r="84"/><circle cx="3718.5" cy="607.5" r="83.5"/><circle cx="3788.5" cy="514.5" r="66.5"/><circle cx="3838" cy="479" r="36"/><circle cx="3098.5" cy="265.5" r="43.5"/><circle cx="3131" cy="205" r="37"/><circle cx="3173.5" cy="247.5" r="74.5"/><circle cx="3253" cy="319" r="85"/><circle cx="3285.5" cy="189.5" r="72.5"/><circle cx="3385" cy="315" r="89"/><circle cx="3399" cy="205" r="61"/><circle cx="3491" cy="257" r="61"/><circle cx="3502" cy="347" r="51"/><circle cx="336" cy="265" r="80"/><circle cx="204" cy="242" r="80"/><circle cx="274.5" cy="351.5" r="64.5"/><circle cx="178" cy="345" r="54"/><circle cx="116.5" cy="267.5" r="61.5"/><circle cx="64" cy="310" r="49"/><circle cx="427.5" cy="284.5" r="50.5"/><circle cx="462" cy="254" r="31"/><circle cx="1029.5" cy="469.5" r="53.5"/><circle cx="968" cy="492" r="35"/><circle cx="938" cy="471" r="25"/><circle cx="1088.25" cy="530.75" r="77.25"/><circle cx="1129.5" cy="478.5" r="57.5"/><circle cx="1191" cy="505" r="44"/><circle cx="1211" cy="464" r="45"/><circle cx="1248" cy="429" r="28"/></g><g clip-path="url(#b)" fill="#81d4a5" data-name="Far BG Trees"><path d="M1099.18 1044.74a8.58 8.58 0 0 0-2.2-2.43 9.14 9.14 0 0 0-8-6.06 24.25 24.25 0 0 0-4.53.2 7.1 7.1 0 0 0-5.79-1.82c-2.59.28-5.12.65-7.63 1.1a19.1 19.1 0 0 0-16.46-.74 12.49 12.49 0 0 0-5.71 1.26 16.94 16.94 0 0 0-4.29-.81 20.44 20.44 0 0 0-9.75-3.1c-1.54-6.75-8.62-9.1-14.95-8a20.56 20.56 0 0 0-5.69 1.87h-2.25a14.82 14.82 0 0 0-9.28-6.5c-8-2-17.46-1.15-24.05 3.8l-.54.07c-.71-.1-1.42-.18-2.12-.25a48.13 48.13 0 0 0-6.46-.17c-3.5-2.34-8.54-2.73-13-2.22a12.16 12.16 0 0 0-5.17-1.45c-4.65-.24-9.06 1.87-13.32 3.43l-8.83 3.24c-4.41.32-8.81.68-13.21 1-5.91.49-7.94 9.34-1.48 10.91a64.09 64.09 0 0 0 6.89 1.28 4.3 4.3 0 0 0 2.33.94 6.08 6.08 0 0 0 3.88 0 41.6 41.6 0 0 0 4.65-.45 62.27 62.27 0 0 0 8.29-.85l.17.21a10.56 10.56 0 0 0 9.43 3.39 13 13 0 0 0 6.07 1.22l1.37-.12a12.07 12.07 0 0 0 1.82.17 42.48 42.48 0 0 0 9.62 2.29 62.26 62.26 0 0 0 6.34 2.88 28.69 28.69 0 0 0 11.57 2.15 31 31 0 0 0 12.71.51c1.72 4.19 6 5.59 10.33 5a65.91 65.91 0 0 0 14.31-3.65 18.74 18.74 0 0 0 11.73 2.18 19.67 19.67 0 0 0 2.37 1.94 7.89 7.89 0 0 0 8.13.33 7.62 7.62 0 0 0 3.8 1c6.12 1.61 12 .54 18.17-.44a8.84 8.84 0 0 0 4 2.48 27.11 27.11 0 0 0 23.54-3.91c3.85-2.71 5.76-7.49 3.19-11.88zM1605.76 1036.91c-.29-.15-.59-.28-.89-.42a8.23 8.23 0 0 0-.63-1.12 7.46 7.46 0 0 0-7.59-5.55 25.86 25.86 0 0 1-10-2 6.46 6.46 0 0 0-6 .43l-1.38-.1a42.57 42.57 0 0 0-7.85-1.28c-8-.56-20.09 0-25.94 6.57-1.06.1-2.12.2-3.18.32-3.93.43-7.3 2.69-7.8 6.88-.36 3 1.16 6.73 4 8.17a186 186 0 0 0-19.35 6.18c-5 1.93-3.15 9.32 2.25 8.14 15.47-3.39 30.7-6.75 46.56-7.34a7.87 7.87 0 0 0 2.56-.5 87.55 87.55 0 0 0 9.17-1.08c9 1 21.73 3.15 27.72-4.09 3.22-3.88 3.59-10.64-1.65-13.21zM2569.05 1033.18c-4.5-1.78-9.29-1.87-14.06-1.82a61.48 61.48 0 0 1-14.18-1.53c-10.29-2.28-20.53-4.55-31-6.18s-20.88-3-31.35-4.24c-11.18-1.35-22.05-3.06-33.27-1.35a6.62 6.62 0 0 0-4.3 2.62q-8.28-1.42-16.63-2.25a82 82 0 0 0-8.24-.63 161.59 161.59 0 0 0-27.63.76c-4.49.52-9.12 3.22-10.9 7.07a87.34 87.34 0 0 0-13.91 3.16c-4.77 1.53-4.17 9.27 1.22 9s11-.48 16.42-.62c3.23 2.4 7.67 3.52 11.76 4.17 4.83 1.38 10.35 1.5 15.16 1.69a362.76 362.76 0 0 0 38.26 1.44 7.77 7.77 0 0 0 7.08-4.24c9.67 2.36 19.23 5.15 28.73 8.12 6.86 2.16 11.11-4.07 10.34-9.59 5.47.82 10.93 1.69 16.37 2.67 9.39 1.68 18.64 3.83 27.95 5.83a81.33 81.33 0 0 0 14.64 2c4.42.12 8.53-.5 12.73 1.16 4.5 1.77 9.84-2 11-6.26 1.47-5.04-1.67-9.16-6.19-10.98zM3978.61 943.28c-.61 0-1.21.1-1.82.17a5.27 5.27 0 0 0-2.23.16c-.41.13-.81.28-1.2.42a35.3 35.3 0 0 0-3.6 1c-9.21-6.66-22.66-2-28.4 7.53a31.31 31.31 0 0 0-8 1.48 21 21 0 0 0-2.24 0 52 52 0 0 0-16.92 1.71c-.55.15-1.09.32-1.63.5a37.89 37.89 0 0 0-11.28 5.07c-.54.25-1.09.49-1.64.72a17.5 17.5 0 0 1-4.1 1.06 27.14 27.14 0 0 0-9.25.19c-2-.09-4-.2-5.85-.2h-6.28a19.49 19.49 0 0 0-5.5 0c-9.37 0-18.77.17-28.09.83-.77.06-1.52.13-2.26.22a7.38 7.38 0 0 0-3.83.69 22.73 22.73 0 0 0-8.95 4.35c-2.38 1.91-4.46 3.8-6.77 5.42l-.19.06a66.22 66.22 0 0 0-10.17 4.08 43.31 43.31 0 0 0-15.81 3.26 83.11 83.11 0 0 0-8.91 2.15c-.86.27-1.7.59-2.52.94a25.17 25.17 0 0 0-9.06 3.67 36.35 36.35 0 0 0-12.46 1.46 31.59 31.59 0 0 0-6.25.52c-5.79 1.07-11.1 3.91-16.38 6.39a85 85 0 0 1-16.9 5.67c-12.13 2.84-24.59 4.57-36.9 6.45a27.87 27.87 0 0 0-4.72.71c-6.94 1-13.92 1.94-20.91 2.66a51.56 51.56 0 0 0-10.29-1.54 45.47 45.47 0 0 0-19.13 3.33l-1.69.08a18.19 18.19 0 0 0-14-3 17.34 17.34 0 0 0-2.59.78 54.3 54.3 0 0 1-8.07-.46c-9.1-1.41-16.77-7.75-25.81-9.67-9.95-2.12-20-2.77-29.87-5.35-10.76-2.81-21.46-5.87-32.22-8.65-21.36-5.51-42.87-11.56-64.54-15.72a112.38 112.38 0 0 0-18.5-1.94 10.4 10.4 0 0 0-3.52 0c-14.48.07-28.82 2.67-43.07 6.53-9.78 2.65-19.55 5.48-29.23 8.54q-15.69 4.23-31.12 9.34a157.49 157.49 0 0 0-22.66 1.73c-19.46-.29-39.09-3.48-58.49-2.24a141.43 141.43 0 0 0-22.32 3.32c-3.17.72-6.34 1.53-9.53 2.26a10.06 10.06 0 0 0-1.75.24c-1.67.39-3.34.75-5 1.11s-3.33.48-5 .61c-12.13.94-23.83-1.26-35.69.07-3.44-1.08-7.11.51-10.5 1.5h-.09c-6.87 0-13.74-.15-20.61-.5-23.47-1.21-46-8-69.18-11.58a326.66 326.66 0 0 0-40.46-3.78c-3.23-.09-6.41 0-9.57.07l-2.74-.3c-28-3.07-55.93-6.41-84.06-7.52s-55.93 1.84-83.51 7.17a210.09 210.09 0 0 1-43.7 3.64c-7.17-.1-14.43-.22-21.47.71a21.68 21.68 0 0 0-5.77-.9c-8.4-.09-16.14 5.11-23.5 8.58a493.69 493.69 0 0 1-50.69 20.44 8.31 8.31 0 0 0-4.61 4 140.38 140.38 0 0 1-21.84 2.75c-5.1.24-5.13 7.78 0 7.94a147.52 147.52 0 0 0 22.84-1 7.39 7.39 0 0 0 3.61 1.85 138.12 138.12 0 0 0 19.22 2.83 6.48 6.48 0 0 0 1 1.27 6.56 6.56 0 0 0 5.31 5.3c10.49 2 20.9 1.85 31.4.94.35 4.66 4.36 9.29 10.35 8q25.23-5.25 50.68-9.11a7.25 7.25 0 0 0 6.43 2.72l186.91-12.3a8.65 8.65 0 0 0 6.77-3.66c12.93.44 25.8 1.48 38.72 2.94 17.14 1.93 34.21 1.14 50.6-4.19l2.79.14h.56a18.6 18.6 0 0 0 7.71-.42 8.53 8.53 0 0 0 3.68-2.19q2.52.55 5.06 1c12.93 4 25.58 8.78 38.19 13.66 8.88 3.44 14.05-10.34 6.32-15-1.12-.67-2.26-1.31-3.4-1.94.66-.26 1.31-.53 1.95-.82 2.4-.29 4.79-.58 7.18-.9a7.69 7.69 0 0 0 5.61 1.91c1.61-.06 3.21-.15 4.81-.23a10.56 10.56 0 0 0 2.38 1.18 59.53 59.53 0 0 0 20.16 3.31 7.13 7.13 0 0 0 6.49 3.16q23-1.51 46.12-1.27c9.34.62 18.7 1 28.08.92a8.18 8.18 0 0 0 5.56-2 278.24 278.24 0 0 0 54.05-3.12c.13 0 .25-.06.38-.09a10.83 10.83 0 0 0 2.45.39l73 3c.28.05.55.09.83.12l160.92 17.75a8.29 8.29 0 0 0 6.27 7c24.85 7.34 51.3 6.77 76.95 6.28q21-.4 42-1.71a8.57 8.57 0 0 0 .28 3.18 9 9 0 0 0 11 6.23q18.15-5.28 35.93-11.6 4.84-1.27 9.71-2.45a6.88 6.88 0 0 0 5.53 1.75q18.64-2.29 37.24-5a10.43 10.43 0 0 0 7.59 1.47 770 770 0 0 0 102.21-21.31q20.1-4.35 40.09-9.2c9.18-2.23 7.89-15.72-.56-17.36l11.64-1.59c8.94-1.21 7.93-14.94.34-17.2 2.68-4.37.61-11.28-4.59-13.4 9.21-2.89 16.27-11 18.77-20.33 1.11-4.55-2.53-10.2-7.71-9.84z"/></g><g clip-path="url(#b)" data-name="BG Hills"><path d="M183 1004s254-40 273-44 145-9 197-11 161 33 196 42 107 61 232 75-671 10-671 10z" fill="#c5d9b8"/><path fill="#93c8c9" d="M417 1027l-96-82-90-76-118-40-100-16-96-26v240l48 52 452-52z"/><path d="M-9 1063s245-42 459-42 599 41 1045 41 809-8 972-8 521-36 752-36 373 27 512 27c170 0 271-32 271-32v84H-9z" fill="#00c8b4"/></g><g clip-path="url(#b)" fill="#00a07d" data-name="BG Trees"><path d="M2265.94 1057.2a33.22 33.22 0 0 0 .31-6.68 4.52 4.52 0 0 0-2.58-3.9 7.06 7.06 0 0 0-.53-.92 4.37 4.37 0 0 0-2.2-3.92c-.3-.17-.62-.31-.92-.46a3.4 3.4 0 0 0-1.07-1.17 3.45 3.45 0 0 0-1.73-1.63 37.44 37.44 0 0 0-24.43-2.35 4 4 0 0 0-1.93 1.1c-.89 0-1.79.08-2.68.15-4 .29-6.73 6.4-2.28 8.39l1.41.6a4.43 4.43 0 0 0 .2 2.85 11.9 11.9 0 0 0-3 4.51c-1.64 4.35 3.62 6.72 6.82 4.72l-.84 6.37c-.27 2 1.61 3.94 3.53 4.4 4.6 3.48 13.87 1.24 19.12.5 2.68-.38 5.84-.65 8.32-1.72a4.23 4.23 0 0 0 2.64-1.83 6.19 6.19 0 0 0 .67-.92 3.29 3.29 0 0 0 .34-.61 10.8 10.8 0 0 0 .88-7.39.29.29 0 0 0-.05-.09zM2812.34 1068.06a16.88 16.88 0 0 0-5.32-2c-3.67-5.63-11.49-7.22-18.27-7.26a22.5 22.5 0 0 0-10.56-6.75 20.51 20.51 0 0 0-6.37-2.34 22.54 22.54 0 0 0-9.86-6 31.7 31.7 0 0 0-8.13-3.84 30.45 30.45 0 0 0-6.38-1.17 26.07 26.07 0 0 0-11.78.29 17 17 0 0 0-11.87-6.29c-.15-.32-.31-.63-.49-.94a34 34 0 0 0-11.49-11.57l-.47-.41c-5.49-4.65-14.17-8.63-21.54-6.75-5.83.4-11.2 3.5-12.73 9.79a13.17 13.17 0 0 0 .77 8.91 16.55 16.55 0 0 0-7 2.45 9.09 9.09 0 0 0-4 7l-.92.51c-3.09 1.81-3.37 6.3-1.43 8.87-.57 3.23 2.45 6.69 6.19 4.56a45.44 45.44 0 0 1 5.68-2.73 51.19 51.19 0 0 0 8.76.56 17.6 17.6 0 0 0 6.69 1.58 24.61 24.61 0 0 0 3.58 1.29 31.75 31.75 0 0 0 5.21 2.62l.53.26a18.27 18.27 0 0 0 3.3 4 10.38 10.38 0 0 0 11.65 2 17.19 17.19 0 0 0 4.92 3.25 12.77 12.77 0 0 0 5 3.79 10.37 10.37 0 0 0 11.18 3.91 7.65 7.65 0 0 0 1.85 1.2 10.13 10.13 0 0 0 3.65 4.71c4.47 3.16 10.79 2.91 15.92 1.72a24.93 24.93 0 0 0 5.73-2.07 7.1 7.1 0 0 0 .92 0 9.45 9.45 0 0 0 4.72 5.95 17.58 17.58 0 0 1 12.73 1.56 6.65 6.65 0 0 0 4.28 2.54 43.33 43.33 0 0 0 14.37-2.42 9.3 9.3 0 0 0 2.13.83 10 10 0 0 0 3.77 3.41 9 9 0 0 0 7 .78c5.16 1.92 12.34-.73 12.53-7.94.21-8.78-5.94-16.62-14.45-17.86zM2640 1023.51a15.17 15.17 0 0 0-1.21-7.27c-.86-14.27-19.92-19.8-29.26-9.69a24.84 24.84 0 0 0-11.75 4.86 67.82 67.82 0 0 0-12.39-.74 8.6 8.6 0 0 0-8.37 6.79 18.33 18.33 0 0 0-2.64 1.11 55.47 55.47 0 0 0-9.38.35 33.49 33.49 0 0 0-12.94-2.07c-5.75.11-12.5.46-17.36 3.8l-.09.07c-7-.53-14 .28-20.44 3.38l.06.06c-3.42 2.11-3.14 8.55 2.36 8.9 1.14.07 2.27.12 3.41.17-.12.14-.25.26-.36.41a18.45 18.45 0 0 0-6.34 14.4 17.32 17.32 0 0 0 5.66 12.43 16.2 16.2 0 0 0 3.16 6 22.52 22.52 0 0 0 4.52 6.06c6.87 6.48 16.77 8.34 25.72 5.75a8.06 8.06 0 0 0 5.93-9.78 19.25 19.25 0 0 0 2.72-3.09 15.21 15.21 0 0 0 13.85-6.84 18.28 18.28 0 0 0 10.13-6 10 10 0 0 0 5.47-8 12.08 12.08 0 0 0 9.14.42 9.74 9.74 0 0 0 5-3.72 19 19 0 0 0 2.44.62 29.39 29.39 0 0 0 12.51-.48 31.94 31.94 0 0 0 9.76-2.69 19.12 19.12 0 0 0 8.36-7.8 6.73 6.73 0 0 0 2.33-7.41z"/></g><g clip-path="url(#c)" data-name="Atlanta"><path fill="#88b7c6" d="M2504 1054h107v42h-107z"/><path fill="#7faab8" d="M2379 1036h50v60h-50z"/><path fill="#9fc3dd" d="M2418 1006h67v89h-67z"/><path fill="#9fc3dd" d="M2478 994h52v102h-52z"/><path fill="#7faab8" d="M2724 1070h43v26h-43z"/><path fill="#9fc3dd" d="M2674 1045h57v50h-57z"/><path fill="#9e8282" d="M2621 925h70v171h-70z"/><path fill="#7faab8" d="M2542 879h56v216h-56zM2598 879h-56l24-50h8l24 50z"/><path d="M2570 837a4 4 0 0 1-4-4v-20a4 4 0 0 1 8 0v20a4 4 0 0 1-4 4z" fill="#7faab8"/><path fill="#9fc3dd" d="M2575 1030h66v66h-66z"/><path fill="#7faab8" d="M1294 1038h111v57h-111zM1417 978h57v117h-57z"/><path fill="#7faab8" d="M1429 972h21v14h-21zM1356 1020h69v75h-69z"/><path fill="#7faab8" d="M1378 1008h30v43h-30z"/><path fill="#eee1c2" d="M1287 949h60v151h-60z"/><path fill="#7faab8" d="M1105 991h71v104h-71z"/><path fill="#7faab8" d="M1148 999h60v96h-60zM1073 1016h40v79h-40z"/><path fill="#9fc3dd" d="M1202 912h60v190h-60z"/><path fill="#9e8282" d="M1265 804h55v292h-55z"/><path fill="#9e8282" d="M1260 815h55v281h-55z"/><path fill="#9e8282" d="M1255 874h55v222h-55z"/><path fill="#9e8282" d="M1250 931h55v165h-55z"/><path fill="#9e8282" d="M1245 988h55v108h-55z"/><path fill="#7faab8" d="M1540 1047h62v48h-62z"/><path fill="#9fc3dd" d="M1598 978h63v87h-63z"/><path fill="#9fc3dd" d="M1659 997h76v103h-76z"/><path fill="#7faab8" d="M1617 1027h56v69h-56z"/><path fill="#fdefdb" d="M1598 936h13v160h-13z"/><path fill="#fdefdb" d="M1582 950h44v146h-44zM1689 936h13v160h-13z"/><path fill="#fdefdb" d="M1673 950h44v146h-44zM1774 936h13v160h-13z"/><path fill="#fdefdb" d="M1758 950h44v146h-44zM1838 936h13v160h-13z"/><path fill="#fdefdb" d="M1822 950h44v146h-44z"/><path fill="#7faab8" d="M1497 1013h48v82h-48z"/><path fill="#9e8282" d="M1456 810h56v286h-56z"/><path fill="#9e8282" d="M1464 794h42v24h-42z"/><path fill="#9e8282" d="M1472 776h25v24h-25z"/><path d="M1571 1096h-40V842s3-3 20-3 20 3 20 3z" fill="#9fc3dd"/><path fill="#9fc3dd" d="M1550 792h3v59h-3z"/><path fill="#b2b9c9" d="M1920 959h125v136h-125z"/><path fill="#7faab8" d="M1935.5 845.5h71v250h-71z"/><path fill="#7faab8" d="M1945 834h53v35h-53z"/><path fill="#7faab8" d="M1952.5 823.95h38v25.09h-38z"/><path fill="#7faab8" d="M1960 814.91h23v15.19h-23z"/><path fill="#7faab8" d="M1966.5 800h10v19.79h-10z"/><path d="M1942 1096c-25-51-20-227-20-227h-73s2 159-20 227z" fill="#eee1c2"/><path fill="#9e8282" d="M1902 938h48v157h-48z"/><path fill="#7faab8" d="M1788 981h71v114h-71z"/><path fill="#7faab8" d="M1730 992h66v103h-66z"/><path fill="#9e8282" d="M2281 1096h122V936h-132l10 160z"/><path fill="#7faab8" d="M2253 1025h59v70h-59z"/><path fill="#9fc3dd" d="M2163 1065h111v31h-111z"/><path fill="#7faab8" d="M2054 1006h54v89h-54z"/><path fill="#9fc3dd" d="M1982 1036h101v59h-101z"/><path fill="#7faab8" d="M2132 982h110v114h-110z"/><path fill="#b2b9c9" d="M2095 970h47v126h-47z"/></g><g clip-path="url(#b)" data-name="FG Trees"><path d="M1170.93 1080.1a4.09 4.09 0 0 0-.14-1.42 7.1 7.1 0 0 0-3.3-4.44 12.76 12.76 0 0 0-6.58-7.37 3.64 3.64 0 0 0-1.87-.89l-1.45-.22c-.34-.07-.67-.12-1-.16q-7.45-1.17-14.92-2.17a3.35 3.35 0 0 0-1.31.09l-1.08-.36a18.51 18.51 0 0 0-2.84-2.08 12.61 12.61 0 0 0-9-4.46 7.72 7.72 0 0 0-2 .24 9.13 9.13 0 0 0-1.07-.38 12.62 12.62 0 0 0-6.12-7.74 16.2 16.2 0 0 0-16 .63 20.73 20.73 0 0 0-6.25 3.49 41.89 41.89 0 0 0-8.15.1c-2.8.32-5.85.92-8.14 2.43-6.22 1.24-12.81 4.23-14.27 9.5a35 35 0 0 0-9.1 3.69 29.8 29.8 0 0 0-6 4.44 37.52 37.52 0 0 0-5.69 3.79 145.31 145.31 0 0 1-11.74 4.83c-5.41 1.94-3.08 10.64 2.39 8.67 2.77-1 5.51-2.07 8.21-3.21a4.23 4.23 0 0 0 3.13 1.51c.82 0 1.65 0 2.47.05a4.69 4.69 0 0 0 4 1.33q6.18-.85 12.36-1.63c13.76-.66 27.49-2.1 41.25-2.62q6.57.38 13.14.71a4.34 4.34 0 0 0 3.15 1.25q7.56.08 15.1-.2a4.13 4.13 0 0 0 1.38.26l28.65.34c4.64.05 5.56-5.65 2.79-8zM2187.91 1081.6a120.57 120.57 0 0 0-28.14-14 4.1 4.1 0 0 0-3.16-3.52q-6.46-1.77-13-3.24c-.65-.45-1.32-.87-2-1.27a3.7 3.7 0 0 0-3-2.92 77.26 77.26 0 0 0-4.69-.52 35.22 35.22 0 0 0-15-1.32 32.54 32.54 0 0 0-6.79-2.9 34.05 34.05 0 0 0-17.07-.6 3.82 3.82 0 0 0-2.18 1.36c-9.88.28-23.24 2.91-23.6 12.23l-.6.29c-5 .46-10.58.79-15.2 2.57a9 9 0 0 0-4.35 3.23c-4 2-7.49 5.23-8.57 8.39q-.1.32-.18.63c-2.76 2.24-1.56 7.17 1.75 7.94a6.32 6.32 0 0 0 2.63 1.51 7.92 7.92 0 0 0 6-.92 4.51 4.51 0 0 0 3.31 1.57 340.33 340.33 0 0 0 45.28-.34 5.17 5.17 0 0 0 2.17.56c24.66 1.11 49.36-2.64 73.95.46a3.51 3.51 0 0 0 4.15-2.82c1.26.43 2.51.9 3.76 1.44 5.23 2.21 9.44-4.49 4.53-7.81zM1844.85 1085.86c2.74-5-1-10.64-5.52-13.74a29.54 29.54 0 0 0-10.07-4.36c-3.45-6.37-10.39-11.83-15.72-15.24a4 4 0 0 0-2.8-.6 23.66 23.66 0 0 0-10.42-6.26 4.57 4.57 0 0 0-5.08 2.07c-.09.17-.16.35-.24.52a44.75 44.75 0 0 0-6.6-2.7 3.92 3.92 0 0 0-3.62.62h-1.58c-4.7-1.43-9.79-.88-13.67 2.83a13.17 13.17 0 0 0-2.46 3.17 18.88 18.88 0 0 0-3.49-.69 7.92 7.92 0 0 0-4.49.68c-.64-.14-1.28-.27-1.93-.36a16.51 16.51 0 0 0-9 1.18c-1.2-.16-2.36-.26-3.4-.3-5.63-.23-11.82 1.24-16.32 4.72-.41.32-.81.67-1.19 1a49.06 49.06 0 0 0-8 2.41 25.91 25.91 0 0 0-4 .25c-5 .7-10.32 3.17-13.51 7.24a21.23 21.23 0 0 0-9 6.89 88.43 88.43 0 0 0-15 9.41 3.47 3.47 0 0 0-1.42 2.73c-4.3 3.17.1 10.44 4.93 7.51a114.29 114.29 0 0 1 11.72-6.2l3.44-1.18c8.85.74 17.83-1.2 26.58-2.38l13.82-1.86c7.09 3.65 15.54 5.85 22.71 3.78a11.81 11.81 0 0 0 6.89-5.36 11 11 0 0 0 1.39-.52 12.75 12.75 0 0 0 6.56 3.35 5.63 5.63 0 0 0 5.18-1.78 10.75 10.75 0 0 0 3.39-.39 12.48 12.48 0 0 0 6.74 2.55 11.17 11.17 0 0 0 6.08 2.19 9.52 9.52 0 0 0 5.39-1.33c.12.8.24 1.6.4 2.4.68 3.56 5.22 4.07 7.52 1.92a33.56 33.56 0 0 0 1.69 4.92c1.42 3.24 6.18 2.61 7.77 0a22.72 22.72 0 0 0 1.35-2.59 7.09 7.09 0 0 0 2.63-.4 6.19 6.19 0 0 0 4-4.06 9 9 0 0 0 1 .93c4.14 3.24 10.93 3 15-.33a4.27 4.27 0 0 0 2.35-2.64z" fill="#00a07d"/><ellipse cx="3326.5" cy="1110.92" rx="36.5" ry="56.13" fill="#008f70"/><ellipse cx="3289.5" cy="1125.92" rx="36.5" ry="56.13" fill="#008f70"/><ellipse cx="3377.67" cy="1071.08" rx="42.97" ry="66.08" fill="#008f70"/><ellipse cx="3420.67" cy="1111.08" rx="42.97" ry="66.08" fill="#008f70"/><ellipse cx="3483.57" cy="1091.08" rx="46.87" ry="72.08" fill="#008f70"/><ellipse cx="1385.5" cy="1115.92" rx="36.5" ry="56.13" fill="#008f70"/><ellipse cx="1334.5" cy="1104.92" rx="36.5" ry="56.13" fill="#008f70"/><ellipse cx="1297.5" cy="1121.92" rx="36.5" ry="56.13" fill="#008f70"/><ellipse cx="1184" cy="1107.38" rx="31" ry="47.67" fill="#008f70"/><ellipse cx="1215" cy="1116.38" rx="31" ry="47.67" fill="#008f70"/><ellipse cx="1239" cy="1122.38" rx="31" ry="47.67" fill="#008f70"/><ellipse cx="1260.5" cy="1103.38" rx="21.5" ry="47.67" fill="#008f70"/><ellipse cx="1437.85" cy="1103.5" rx="38.15" ry="58.67" fill="#008f70"/><ellipse cx="1485.12" cy="1109.08" rx="38.42" ry="59.08" fill="#008f70"/><ellipse cx="1516.35" cy="1128.34" rx="35.65" ry="54.83" fill="#008f70"/><ellipse cx="197.02" cy="1076.55" rx="46.47" ry="71.47" fill="#008f70"/><ellipse cx="132.08" cy="1062.54" rx="46.47" ry="71.47" fill="#008f70"/><ellipse cx="84.98" cy="1084.19" rx="46.47" ry="71.47" fill="#008f70"/><ellipse cx="44.93" cy="1043.92" rx="45.46" ry="69.92" fill="#008f70"/><ellipse cx="-.51" cy="1056.04" rx="39.47" ry="111.96" fill="#008f70"/><ellipse cx="85.87" cy="1048.58" rx="27.37" ry="60.7" fill="#008f70"/><ellipse cx="263.66" cy="1060.73" rx="48.57" ry="74.7" fill="#008f70"/><ellipse cx="323.84" cy="1067.85" rx="48.91" ry="75.23" fill="#008f70"/><ellipse cx="363.61" cy="1092.36" rx="45.39" ry="69.81" fill="#008f70"/><ellipse cx="408.61" cy="1126.36" rx="45.39" ry="69.81" fill="#008f70"/><ellipse cx="444.61" cy="1126.74" rx="35.39" ry="54.43" fill="#008f70"/></g></svg>